<svg xmlns="http://www.w3.org/2000/svg" xmlns:xlink="http://www.w3.org/1999/xlink" width="53" height="53" viewBox="0 0 53 53">
  <defs>
    <radialGradient id="radial-gradient" cx="0.5" cy="0.41" r="0.5" gradientUnits="objectBoundingBox">
      <stop offset="0" stop-color="#ffee87"/>
      <stop offset="1" stop-color="#febe27"/>
    </radialGradient>
    <linearGradient id="linear-gradient" x1="0.607" y1="1.347" x2="-0.157" y2="0.246" gradientUnits="objectBoundingBox">
      <stop offset="0" stop-color="#fe8"/>
      <stop offset="0.498" stop-color="#fece49"/>
      <stop offset="1" stop-color="#c7950f"/>
    </linearGradient>
    <linearGradient id="linear-gradient-2" x1="1.278" y1="1.49" x2="-0.157" y2="0.246" xlink:href="#linear-gradient"/>
    <linearGradient id="linear-gradient-4" x1="1.273" y1="0.194" x2="-0.157" y2="0.246" xlink:href="#linear-gradient"/>
    <linearGradient id="linear-gradient-5" x1="1" y1="0.824" x2="-0.157" y2="0.246" xlink:href="#linear-gradient"/>
    <linearGradient id="linear-gradient-6" x1="0.607" y1="1.347" x2="-0.051" y2="0.16" gradientUnits="objectBoundingBox">
      <stop offset="0" stop-color="#feca3f"/>
      <stop offset="0.498" stop-color="#fece49"/>
      <stop offset="1" stop-color="#c7950f"/>
    </linearGradient>
    <linearGradient id="linear-gradient-7" x1="0.607" y1="1.347" x2="-0.157" y2="0.246" gradientUnits="objectBoundingBox">
      <stop offset="0" stop-color="#fe8"/>
      <stop offset="0.498" stop-color="#fece49"/>
      <stop offset="1" stop-color="#e2ab19"/>
    </linearGradient>
  </defs>
  <g id="Group_9773" data-name="Group 9773" transform="translate(-18381 -1001)">
    <g id="Group_9774" data-name="Group 9774">
      <path id="Path_10505" data-name="Path 10505" d="M26.5,0A26.5,26.5,0,1,1,0,26.5,26.5,26.5,0,0,1,26.5,0Z" transform="translate(18381 1001)" fill="none"/>
      <g id="Group_9772" data-name="Group 9772" transform="translate(-152 34.55)">
        <circle id="Ellipse_90" data-name="Ellipse 90" cx="15.5" cy="15.5" r="15.5" transform="translate(18544 977.45)" fill="url(#radial-gradient)"/>
        <path id="Path_10482" data-name="Path 10482" d="M3.133,0C4.875,0,7.115,1.059,7.115,2.366S6.872,4.831,5.129,4.831,0,3.673,0,2.366,1.39,0,3.133,0Z" transform="matrix(0.951, -0.309, 0.309, 0.951, 18558.072, 982.381)" fill="url(#linear-gradient)"/>
        <path id="Path_10483" data-name="Path 10483" d="M2.817-.833c.943,0,1.455.309,1.455,1.016S3.76,2.218,2.817,2.218.043,1.592.043.885,1.875-.833,2.817-.833Z" transform="translate(18559.732 994.761)" fill="url(#linear-gradient-2)"/>
        <path id="Path_10484" data-name="Path 10484" d="M1.737,0C2.68,0,3.892.573,3.892,1.28S3.76,2.613,2.817,2.613.043,1.987.043,1.28.795,0,1.737,0Z" transform="translate(18552.449 982.272)" fill="url(#linear-gradient)"/>
        <path id="Path_10485" data-name="Path 10485" d="M2.817-.833c.943,0,1.455.309,1.455,1.016S3.76,2.218,2.817,2.218.043,1.592.043.885,1.875-.833,2.817-.833Z" transform="translate(18546.588 993.507)" fill="url(#linear-gradient-4)"/>
        <path id="Path_10487" data-name="Path 10487" d="M2.817-.833c.943,0,1.455.309,1.455,1.016S3.76,2.218,2.817,2.218.043,1.592.043.885,1.875-.833,2.817-.833Z" transform="translate(18557.932 1003.273)" fill="url(#linear-gradient-5)"/>
        <path id="Path_10488" data-name="Path 10488" d="M2.774,0c.943,0,1.455.309,1.455,1.016S3.717,3.051,2.774,3.051,0,2.425,0,1.718,1.832,0,2.774,0Z" transform="matrix(0.914, -0.407, 0.407, 0.914, 18550.422, 999.654)" fill="url(#linear-gradient-6)"/>
        <path id="Path_10489" data-name="Path 10489" d="M3.176,0C4.918,0,7.158,1.059,7.158,2.366S6.915,4.831,5.172,4.831.043,3.673.043,2.366,1.433,0,3.176,0Z" transform="translate(18550.814 986.89)" fill="url(#linear-gradient-7)"/>
      </g>
    </g>
  </g>
</svg>
