<svg xmlns="http://www.w3.org/2000/svg" width="36.609" height="34.25" viewBox="0 0 36.609 34.25">
  <g id="Group_9759" data-name="Group 9759" transform="translate(-831.131 -2686.731)">
    <g id="Group_44" data-name="Group 44" transform="translate(832.381 2687.981)">
      <circle id="Ellipse_45" data-name="Ellipse 45" cx="5.503" cy="5.503" r="5.503" transform="translate(23.104 0)" fill="none" stroke="#ffd03b" stroke-miterlimit="10" stroke-width="2.5"/>
      <circle id="Ellipse_46" data-name="Ellipse 46" cx="5.503" cy="5.503" r="5.503" transform="translate(0 0)" fill="none" stroke="#ffd03b" stroke-miterlimit="10" stroke-width="2.5"/>
    </g>
    <g id="Group_43" data-name="Group 43" transform="translate(837.919 2694.787)">
      <path id="Path_10457" data-name="Path 10457" d="M11.517,0A11.517,11.517,0,1,1,0,11.517,11.517,11.517,0,0,1,11.517,0Z" transform="translate(0 0)" fill="none" stroke="#ffd03b" stroke-width="2.5"/>
    </g>
    <g id="Group_45" data-name="Group 45" transform="translate(835.758 2692.613)">
      <circle id="Ellipse_47" data-name="Ellipse 47" cx="13.684" cy="13.684" r="13.684" transform="translate(0 0)" fill="none" stroke="#27262c" stroke-miterlimit="10" stroke-width="2"/>
    </g>
    <g id="Group_46" data-name="Group 46" transform="translate(844.756 2701.403)">
      <path id="Path_239" data-name="Path 239" d="M976.595,2832.908h2.824l3.686,5.416v-5.416h2.851v9.789H983.1l-3.666-5.375v5.375h-2.844Z" transform="translate(-976.595 -2832.908)" fill="#ffd03b"/>
    </g>
  </g>
</svg>
